<?xml version="1.0" standalone="no"?>
<!DOCTYPE svg PUBLIC "-//W3C//DTD SVG 20010904//EN"
 "http://www.w3.org/TR/2001/REC-SVG-20010904/DTD/svg10.dtd">
<svg version="1.0" xmlns="http://www.w3.org/2000/svg"
 width="260.000000pt" height="260.000000pt" viewBox="0 0 260.000000 260.000000"
 preserveAspectRatio="xMidYMid meet">
<metadata>
Created by potrace 1.14, written by Peter Selinger 2001-2017
</metadata>
<g transform="translate(0.000000,260.000000) scale(0.100000,-0.100000)"
fill="#000000" stroke="none">
<path d="M410 2593 c0 -7 4 -14 9 -18 17 -10 -17 -60 -41 -60 -15 0 -31 -12
-47 -37 -27 -42 -34 -41 -57 7 -19 40 -29 43 -45 14 -9 -17 -13 -19 -20 -8 -8
12 -11 12 -19 -1 -11 -17 -26 -5 -32 25 -5 28 -30 25 -45 -5 -31 -63 -56 -70
-92 -24 -18 23 -18 19 -19 -191 -1 -133 2 -215 8 -215 6 0 10 -7 10 -16 0 -8
-4 -13 -9 -10 -5 3 -9 -17 -9 -45 0 -48 2 -50 24 -45 29 8 36 -4 18 -28 -11
-16 -16 -17 -29 -6 -28 23 -20 -55 9 -83 29 -29 53 -40 61 -26 12 18 24 -2 22
-36 -3 -42 -33 -78 -46 -56 -7 11 -10 10 -18 -4 -9 -16 -11 -15 -16 4 -3 11
-2 21 2 21 4 0 7 16 7 35 0 27 -4 35 -18 35 -15 0 -18 -9 -18 -63 0 -41 5 -70
16 -86 13 -18 14 -28 5 -48 -12 -27 -4 -48 18 -48 27 0 22 -25 -8 -42 -39 -23
-40 -40 -1 -39 22 1 30 6 30 19 0 21 27 34 42 19 16 -16 11 -99 -7 -125 -17
-24 -21 -87 -5 -87 6 0 10 -6 10 -14 0 -16 34 -31 50 -21 16 10 12 38 -5 31
-8 -3 -22 -3 -30 0 -21 9 -19 34 4 34 35 0 42 23 36 112 -3 45 -8 95 -11 109
-4 20 1 34 19 53 20 21 24 36 24 87 1 45 5 64 16 71 8 4 13 16 10 26 -2 10 2
24 10 31 13 10 17 8 22 -9 4 -12 1 -27 -5 -35 -10 -12 -9 -15 3 -15 8 0 18 8
21 17 5 12 10 13 18 5 8 -8 5 -18 -11 -38 -23 -29 -27 -44 -12 -44 5 0 12 8
16 18 3 11 17 24 32 31 23 10 30 9 52 -7 14 -10 38 -22 54 -26 23 -5 27 -3 27
13 0 14 -5 19 -15 15 -23 -9 -19 29 5 43 11 8 21 9 25 3 3 -5 12 -7 20 -3 10
3 15 -2 15 -16 0 -23 -15 -29 -23 -8 -4 7 -6 6 -6 -4 -1 -20 45 -53 65 -45 8
3 14 17 14 32 0 14 5 24 11 22 15 -5 14 -17 -6 -64 -18 -43 -48 -59 -91 -48
-16 4 -19 0 -19 -25 0 -23 5 -31 18 -31 11 0 17 6 15 17 -2 11 7 19 32 25 19
5 38 13 43 17 4 4 21 6 37 3 26 -4 28 -7 24 -32 -6 -29 9 -49 22 -28 5 7 10
33 12 57 3 32 10 50 28 63 13 11 21 24 18 29 -3 6 1 18 9 27 15 17 20 35 18
61 -1 10 -4 11 -15 2 -11 -9 -22 -4 -52 25 -22 21 -33 34 -26 30 15 -9 17 40
2 49 -13 8 -13 61 1 86 5 11 11 32 12 46 1 15 8 28 15 31 9 3 12 -4 11 -19 -5
-55 1 -79 19 -79 10 0 23 5 30 12 17 17 26 3 13 -21 -6 -11 -7 -22 -2 -25 5
-3 11 1 15 9 11 29 32 15 42 -27 11 -51 27 -58 47 -20 14 28 13 32 -10 56 -18
19 -22 32 -17 49 7 21 7 21 14 3 3 -11 14 -20 23 -22 21 -3 21 5 1 35 -16 22
-16 23 2 17 11 -3 25 -2 33 3 8 5 20 7 28 4 17 -6 17 -40 1 -46 -7 -3 -2 -6
12 -6 17 0 33 10 50 34 23 32 45 41 45 19 0 -5 10 -19 23 -31 23 -24 28 -48
12 -58 -15 -9 -12 -41 4 -54 12 -10 18 -7 31 13 20 31 45 34 52 7 3 -12 11
-17 19 -14 26 10 65 103 43 103 -4 0 -9 -7 -13 -15 -3 -8 -16 -14 -28 -14 -15
1 -17 3 -7 6 9 2 22 15 29 28 18 33 41 40 47 15 3 -11 14 -20 24 -20 11 0 19
-6 19 -13 0 -7 8 -17 19 -24 16 -10 20 -8 30 13 11 25 35 32 46 14 12 -19 -6
-91 -23 -97 -24 -9 -32 -25 -26 -50 4 -14 -2 -32 -16 -50 -12 -16 -17 -29 -11
-31 6 -2 11 -12 11 -22 0 -10 5 -22 11 -26 8 -4 7 -9 -2 -15 -18 -11 -6 -21
15 -13 9 3 16 15 16 25 0 10 5 19 11 19 7 0 8 19 3 56 -5 41 -4 55 5 50 6 -4
11 -15 12 -24 0 -9 5 -2 10 16 18 59 88 35 89 -31 0 -23 2 -26 13 -15 17 18
18 69 1 85 -8 8 -22 12 -33 8 -14 -4 -21 0 -26 15 -4 11 -11 18 -16 15 -18
-12 -20 24 -5 87 8 34 17 77 18 93 2 19 9 30 18 30 11 0 15 -16 16 -73 1 -41
6 -78 11 -83 5 -5 28 9 56 32 49 42 65 34 27 -14 -28 -36 -26 -67 4 -67 18 0
27 9 41 45 11 31 22 45 34 44 32 -3 50 1 63 14 7 7 21 16 32 20 13 5 17 13 12
31 -7 28 9 45 18 20 5 -13 9 -14 21 -4 12 10 15 9 15 -4 0 -10 4 -15 9 -12 5
4 11 1 13 -6 3 -8 13 -5 33 10 17 14 32 19 38 13 13 -13 41 -3 56 21 10 16 10
26 0 50 -12 28 -13 29 -26 12 -7 -10 -13 -28 -13 -41 0 -23 -1 -23 -30 -8 -16
9 -30 22 -30 30 0 8 -9 15 -20 15 -25 0 -25 8 0 40 18 22 22 23 33 10 19 -24
57 -24 57 0 0 21 26 23 52 4 7 -6 21 -14 31 -17 21 -8 22 -24 1 -29 -11 -2
-18 -17 -20 -47 -2 -24 -8 -49 -13 -55 -15 -19 -24 -76 -12 -76 6 0 11 5 11
10 0 16 28 11 38 -6 11 -20 32 -10 32 16 0 10 7 23 16 28 21 12 14 46 -10 50
-19 4 -46 25 -46 36 0 3 6 6 14 6 8 0 16 12 18 27 4 33 27 43 35 14 3 -12 12
-21 19 -21 13 0 18 -14 17 -47 0 -6 6 -9 13 -6 8 3 14 -1 14 -10 0 -19 -20
-33 -21 -15 0 7 -5 3 -11 -10 -13 -26 -2 -44 13 -22 7 11 8 7 3 -12 -6 -27 -5
-28 25 -22 22 5 31 3 31 -6 0 -8 -3 -10 -7 -7 -13 13 -33 -16 -33 -48 0 -35
25 -54 44 -35 7 7 7 10 -1 10 -15 0 -4 40 13 47 8 3 12 9 9 13 -6 10 14 25 22
16 3 -3 0 -13 -7 -21 -11 -13 -10 -18 6 -30 16 -12 20 -12 30 0 6 8 14 15 17
15 6 0 21 -51 19 -62 -1 -5 5 -8 14 -8 9 0 14 -6 11 -13 -4 -10 2 -13 19 -9
13 2 24 10 24 17 0 6 9 20 20 30 11 10 20 26 20 37 0 10 5 18 10 18 6 0 10 -7
10 -15 0 -8 9 -15 20 -15 17 0 20 7 20 49 0 45 2 50 29 59 33 12 58 -5 48 -31
-3 -8 -2 -20 3 -27 5 -7 0 -20 -11 -31 -20 -20 -26 -45 -8 -33 6 3 14 2 18 -5
5 -7 14 -6 30 5 18 13 20 18 10 25 -10 6 -6 11 14 18 15 6 27 17 27 25 0 25
-18 28 -40 6 -19 -19 -20 -19 -20 -1 0 32 19 73 31 66 6 -4 16 1 24 11 11 15
14 69 14 237 l1 217 -359 0 c-278 0 -361 -3 -365 -12 -5 -10 -7 -10 -12 0 -4
8 -30 12 -80 12 -66 0 -73 -2 -67 -17 7 -17 6 -17 -10 -1 -16 15 -47 17 -292
18 -190 0 -276 -3 -281 -11 -4 -8 -9 -7 -15 2 -6 11 -11 11 -20 2 -9 -9 -10
-19 -1 -37 14 -32 5 -71 -14 -55 -8 6 -14 22 -14 35 0 13 -5 24 -11 24 -6 0
-8 9 -4 20 6 18 2 20 -38 20 -24 0 -47 -3 -50 -6 -4 -4 -26 -8 -49 -10 -100
-9 -114 -11 -132 -19 -13 -6 -22 -3 -31 8 -10 14 -16 15 -38 4 -15 -6 -27 -18
-27 -24 0 -21 -17 -15 -38 14 -12 16 -24 23 -32 18 -8 -5 -9 -10 -1 -14 15
-10 18 -53 4 -58 -7 -3 -13 3 -13 11 0 12 -7 15 -25 11 -14 -3 -36 -7 -49 -10
-14 -3 -29 1 -36 10 -7 9 -20 13 -29 10 -10 -3 -24 7 -38 28 -13 17 -23 26
-23 20z m790 -32 c0 -6 -4 -13 -10 -16 -5 -3 -10 1 -10 9 0 9 5 16 10 16 6 0
10 -4 10 -9z m120 -9 c0 -13 -12 -22 -22 -16 -10 6 -1 24 13 24 5 0 9 -4 9 -8z
m947 -14 c-3 -8 -6 -5 -6 6 -1 11 2 17 5 13 3 -3 4 -12 1 -19z m-1337 2 c0 -5
-4 -10 -10 -10 -5 0 -10 5 -10 10 0 6 5 10 10 10 6 0 10 -4 10 -10z m-240 -21
c0 -5 -9 -9 -20 -9 -19 0 -26 11 -14 23 8 8 34 -3 34 -14z m180 11 c0 -5 -7
-10 -15 -10 -8 0 -15 5 -15 10 0 6 7 10 15 10 8 0 15 -4 15 -10z m1330 -73
c-1 -21 -1 -21 -15 -3 -8 10 -12 23 -9 28 9 14 24 -2 24 -25z m-1641 -24 c-1
-34 -2 -35 -9 -13 -11 36 -11 50 0 50 6 0 10 -17 9 -37z m309 20 c-4 -22 -22
-20 -26 1 -2 10 3 16 13 16 10 0 15 -7 13 -17z m105 11 c8 -8 -3 -34 -14 -34
-5 0 -9 9 -9 20 0 19 11 26 23 14z m-533 -20 c0 -8 -4 -12 -10 -9 -5 3 -10 10
-10 16 0 5 5 9 10 9 6 0 10 -7 10 -16z m80 6 c0 -5 -4 -10 -10 -10 -5 0 -10 5
-10 10 0 6 5 10 10 10 6 0 10 -4 10 -10z m-460 -39 c0 -20 -17 -37 -27 -28 -7
8 7 47 18 47 5 0 9 -9 9 -19z m310 -2 c0 -5 -7 -9 -15 -9 -15 0 -20 12 -9 23
8 8 24 -1 24 -14z m2170 1 c0 -5 -5 -10 -11 -10 -5 0 -7 5 -4 10 3 6 8 10 11
10 2 0 4 -4 4 -10z m-2120 -9 c0 -17 -18 -21 -24 -6 -3 9 0 15 9 15 8 0 15 -4
15 -9z m70 -6 c0 -8 -4 -15 -10 -15 -5 0 -10 7 -10 15 0 8 5 15 10 15 6 0 10
-7 10 -15z m-350 -9 c0 -15 -24 -28 -34 -19 -13 14 -5 33 14 33 11 0 20 -6 20
-14z m524 -26 c9 0 16 -4 16 -10 0 -5 -3 -10 -7 -10 -5 0 -9 -21 -10 -46 -1
-25 -4 -49 -8 -52 -3 -3 -19 2 -35 12 -18 10 -39 15 -50 11 -27 -9 -25 1 10
45 17 21 30 44 30 52 0 23 14 30 26 14 6 -9 19 -16 28 -16z m-94 4 c0 -8 -5
-12 -10 -9 -6 4 -8 11 -5 16 9 14 15 11 15 -7z m1763 -4 c-3 -12 -8 -19 -11
-16 -5 6 5 36 12 36 2 0 2 -9 -1 -20z m178 -55 l-4 -30 -9 30 c-4 17 -5 41 -2
55 l7 25 6 -25 c4 -14 5 -38 2 -55z m-2331 46 c0 -3 -7 -14 -14 -24 -13 -16
-14 -16 -18 8 -3 13 -3 27 -1 29 6 6 33 -4 33 -13z m1730 1 c0 -13 -12 -22
-22 -16 -10 6 -1 24 13 24 5 0 9 -4 9 -8z m564 -8 c8 -21 3 -26 -17 -18 -9 3
-13 12 -10 20 7 19 19 18 27 -2z m-2164 -20 c0 -8 -4 -12 -10 -9 -5 3 -10 13
-10 21 0 8 5 12 10 9 6 -3 10 -13 10 -21z m1135 6 c-3 -5 -14 -10 -23 -9 -14
0 -13 2 3 9 27 11 27 11 20 0z m-1409 -67 c-11 -11 -19 6 -11 24 8 17 8 17 12
0 3 -10 2 -21 -1 -24z m1330 13 c3 -8 1 -24 -6 -35 -7 -14 -7 -21 0 -21 5 0
10 -4 10 -10 0 -5 -7 -7 -15 -4 -12 5 -15 -2 -15 -33 0 -53 -8 -58 -34 -20
-29 44 -32 83 -5 90 11 3 23 15 26 26 6 24 31 28 39 7z m758 -22 c6 -28 11
-34 26 -29 10 3 21 1 25 -5 9 -15 25 -2 18 15 -3 8 0 15 6 15 6 0 11 -4 11 -9
0 -5 10 -11 21 -14 l21 -6 -20 -26 c-12 -14 -32 -35 -46 -46 -14 -11 -26 -27
-26 -35 0 -10 -6 -8 -20 6 -17 17 -19 28 -14 58 7 34 6 36 -9 23 -15 -12 -17
-11 -18 10 0 13 -2 33 -4 43 -2 11 -2 23 1 28 11 17 22 6 28 -28z m219 16 c-4
-16 -8 -18 -19 -9 -20 16 -17 29 5 29 14 0 18 -5 14 -20z m-1593 -8 c0 -13
-12 -22 -22 -16 -10 6 -1 24 13 24 5 0 9 -4 9 -8z m1792 -31 c2 -13 -2 -26 -8
-28 -8 -3 -12 9 -12 33 0 39 15 35 20 -5z m-1117 19 c3 -5 1 -10 -4 -10 -6 0
-11 5 -11 10 0 6 2 10 4 10 3 0 8 -4 11 -10z m335 -5 c0 -8 -4 -15 -10 -15 -5
0 -10 7 -10 15 0 8 5 15 10 15 6 0 10 -7 10 -15z m620 -11 c0 -22 -30 -84 -41
-84 -13 0 -11 15 8 60 18 41 33 52 33 24z m-2288 -20 c-7 -12 -11 -13 -17 -4
-4 7 -2 16 6 21 18 11 23 4 11 -17z m506 1 c-12 -27 -23 -31 -33 -15 -8 13 13
40 31 40 11 0 11 -5 2 -25z m893 2 c-13 -13 -26 -3 -16 12 3 6 11 8 17 5 6 -4
6 -10 -1 -17z m829 13 c0 -5 -4 -10 -10 -10 -17 0 -33 -41 -21 -53 6 -6 11
-17 11 -25 0 -10 -9 -6 -26 11 l-26 26 22 31 c21 29 50 41 50 20z m-1153 -55
c1 -25 -2 -45 -7 -45 -6 0 -10 6 -10 14 0 7 -3 28 -6 45 -5 23 -3 31 7 31 10
0 15 -15 16 -45z m593 27 c0 -14 -11 -21 -26 -15 -21 8 -17 23 6 23 11 0 20
-4 20 -8z m-1360 -22 c0 -5 -7 -10 -15 -10 -8 0 -15 5 -15 10 0 6 7 10 15 10
8 0 15 -4 15 -10z m708 -26 c10 -21 8 -28 -17 -56 -35 -39 -50 -31 -45 23 7
69 38 86 62 33z m-108 6 c0 -5 -4 -10 -10 -10 -5 0 -10 5 -10 10 0 6 5 10 10
10 6 0 10 -4 10 -10z m1570 6 c0 -3 -4 -8 -10 -11 -5 -3 -10 -1 -10 4 0 6 5
11 10 11 6 0 10 -2 10 -4z m-326 -12 c20 -8 21 -24 2 -24 -8 0 -24 -12 -35
-27 -12 -14 -24 -23 -27 -20 -9 8 23 57 37 57 6 0 7 5 4 10 -7 12 -3 12 19 4z
m-683 -37 c-8 -8 -11 -7 -11 4 0 9 3 19 7 23 4 4 9 2 11 -4 3 -7 -1 -17 -7
-23z m-1345 -74 c-10 -10 -19 5 -10 18 6 11 8 11 12 0 2 -7 1 -15 -2 -18z m94
-27 c0 -46 -15 -53 -33 -17 -11 21 -12 32 -4 40 22 22 37 12 37 -23z m1240
-16 c0 -5 -4 -10 -10 -10 -5 0 -10 5 -10 10 0 6 5 10 10 10 6 0 10 -4 10 -10z
m-1015 -31 c4 -6 5 -13 2 -16 -8 -7 -47 7 -47 18 0 13 37 11 45 -2z m-160 -55
c-2 -28 -27 -49 -51 -40 -22 8 -18 39 5 31 13 -4 20 0 24 15 7 29 23 25 22 -6z
m245 -60 c0 -28 -8 -30 -36 -10 -19 15 -19 15 1 29 25 19 35 13 35 -19z m-290
-15 c0 -5 -4 -9 -10 -9 -5 0 -10 7 -10 16 0 8 5 12 10 9 6 -3 10 -10 10 -16z
m298 -72 c2 -10 -3 -17 -11 -17 -18 0 -39 24 -30 34 12 12 38 2 41 -17z m-499
-86 c-7 -25 -13 -61 -14 -80 0 -19 -5 -36 -12 -38 -18 -6 -27 46 -14 82 6 17
11 42 11 55 0 13 8 32 18 43 16 18 17 18 20 2 2 -10 -2 -38 -9 -64z"/>
<path d="M2150 2198 c0 -5 7 -16 15 -24 8 -9 15 -13 15 -11 0 3 3 12 6 20 3 9
-3 16 -15 20 -12 3 -21 1 -21 -5z"/>
<path d="M1751 2062 c-13 -24 -12 -104 1 -100 5 2 9 7 9 11 0 4 6 25 14 48 8
23 15 45 15 50 0 16 -29 9 -39 -9z"/>
<path d="M1812 2010 c-24 -32 -29 -62 -9 -55 11 5 40 76 33 82 -1 2 -12 -11
-24 -27z"/>
<path d="M1916 2031 c-4 -7 -5 -15 -2 -18 9 -9 19 4 14 18 -4 11 -6 11 -12 0z"/>
<path d="M894 2004 c3 -9 6 -19 6 -24 0 -4 7 -10 15 -14 11 -4 15 2 15 24 0
24 -4 30 -21 30 -15 0 -19 -4 -15 -16z"/>
<path d="M1990 1985 c-6 -19 -21 -42 -33 -50 -12 -8 -18 -15 -13 -15 5 0 2 -8
-7 -18 -18 -20 -12 -36 19 -46 31 -10 74 56 74 113 0 29 4 40 12 35 7 -4 8 -3
4 4 -15 25 -44 12 -56 -23z m-8 -107 c-7 -7 -12 -8 -12 -2 0 6 3 14 7 17 3 4
9 5 12 2 2 -3 -1 -11 -7 -17z"/>
<path d="M2062 1980 c0 -19 2 -27 5 -17 2 9 2 25 0 35 -3 9 -5 1 -5 -18z"/>
<path d="M2480 1959 c0 -5 5 -7 10 -4 6 3 10 8 10 11 0 2 -4 4 -10 4 -5 0 -10
-5 -10 -11z"/>
<path d="M2086 1953 c-3 -3 -6 -15 -6 -25 0 -12 7 -18 24 -18 13 0 27 -6 30
-12 3 -7 4 -2 3 12 -2 20 -7 24 -27 22 -18 -2 -21 0 -11 6 8 6 9 12 3 15 -5 4
-12 4 -16 0z"/>
<path d="M683 1920 c0 -17 4 -30 9 -30 4 0 8 11 8 24 0 14 -4 27 -8 30 -5 3
-9 -8 -9 -24z"/>
<path d="M910 1921 c0 -11 5 -23 10 -26 6 -3 10 -2 10 4 0 5 3 16 6 25 4 11 1
16 -10 16 -9 0 -16 -8 -16 -19z"/>
<path d="M1042 1900 c-34 -41 -34 -54 0 -23 11 9 18 11 18 5 0 -7 -4 -12 -10
-12 -5 0 -10 -7 -10 -15 0 -8 7 -15 15 -15 7 0 19 -8 24 -17 9 -16 10 -14 11
9 0 15 -5 30 -10 33 -10 6 -8 23 7 63 10 24 -13 11 -45 -28z"/>
<path d="M1231 1921 c-8 -5 -9 -11 -3 -15 5 -3 12 1 16 9 6 17 6 18 -13 6z"/>
<path d="M2423 1903 c-11 -28 4 -33 26 -9 l23 25 -22 -2 c-12 -1 -24 -7 -27
-14z"/>
<path d="M2467 1886 c-4 -10 -1 -13 8 -9 8 3 12 9 9 14 -7 12 -11 11 -17 -5z"/>
<path d="M797 1883 c-4 -3 -7 -12 -7 -20 0 -11 4 -11 19 -1 11 7 17 16 15 20
-6 10 -18 10 -27 1z"/>
<path d="M980 1830 c0 -16 2 -30 4 -30 2 0 6 14 8 30 3 17 1 30 -4 30 -4 0 -8
-13 -8 -30z"/>
<path d="M2437 1810 c4 -16 8 -18 20 -9 11 10 11 14 1 20 -21 14 -26 10 -21
-11z"/>
<path d="M2152 1798 c-7 -7 -12 -23 -12 -37 0 -24 1 -25 13 -6 30 43 29 73 -1
43z"/>
<path d="M1362 1771 c2 -14 9 -26 16 -29 17 -5 15 10 -3 34 -15 18 -15 18 -13
-5z"/>
<path d="M2220 1775 c0 -15 18 -40 24 -34 3 3 -1 14 -9 25 -8 10 -14 15 -15 9z"/>
<path d="M2431 1740 c0 -8 6 -24 14 -34 14 -19 15 -19 15 8 0 15 -4 25 -9 22
-5 -4 -12 0 -14 6 -4 9 -6 8 -6 -2z"/>
<path d="M205 1729 c-11 -17 1 -21 15 -4 8 9 8 15 2 15 -6 0 -14 -5 -17 -11z"/>
<path d="M1891 1724 c0 -11 3 -14 6 -6 3 7 2 16 -1 19 -3 4 -6 -2 -5 -13z"/>
<path d="M2377 1710 c-15 -16 -32 -30 -38 -30 -7 0 -9 -10 -5 -25 6 -23 -1
-30 -26 -26 -3 0 -9 -13 -13 -28 -6 -30 -27 -46 -56 -42 -13 1 -18 -8 -21 -44
-2 -25 0 -45 4 -45 18 0 6 -21 -16 -30 -33 -12 -41 -29 -24 -47 13 -13 17 -12
32 2 12 13 16 13 16 3 0 -8 -5 -19 -12 -26 -9 -9 -8 -12 6 -12 15 0 16 -3 6
-15 -9 -11 -16 -12 -25 -5 -9 7 -21 7 -41 -1 -16 -6 -50 -12 -76 -14 -45 -4
-47 -4 -45 23 2 25 -1 27 -31 25 -18 0 -39 -8 -45 -16 -17 -20 -50 -26 -73
-14 -10 6 -26 12 -34 12 -23 1 -51 -15 -45 -25 7 -11 -26 -30 -48 -26 -23 3
-46 37 -39 56 5 13 4 13 -13 0 -10 -8 -37 -15 -61 -16 -33 -1 -48 -7 -68 -30
-24 -26 -27 -27 -37 -11 -15 26 -31 21 -57 -19 -31 -48 -112 -76 -112 -39 0 8
-4 15 -8 15 -16 0 -32 -25 -32 -51 0 -33 -32 -59 -73 -59 -15 0 -43 -7 -62
-14 -31 -13 -35 -13 -35 0 0 7 -4 14 -8 14 -12 0 -42 -34 -42 -48 0 -21 -23
-25 -36 -7 -13 17 -15 17 -31 2 -10 -8 -22 -15 -28 -14 -5 1 -16 -11 -23 -26
-12 -25 -17 -27 -48 -21 -18 3 -41 7 -51 8 -21 1 -68 -65 -53 -74 6 -4 -3 -7
-20 -8 -17 0 -33 5 -36 12 -7 19 -65 5 -93 -23 -23 -23 -57 -28 -64 -8 -8 23
-42 -8 -43 -39 0 -36 18 -58 35 -41 18 18 14 -44 -5 -71 -14 -20 -17 -21 -30
-7 -9 8 -22 15 -30 15 -8 0 -14 10 -14 25 0 23 -2 24 -20 13 -11 -7 -20 -21
-20 -31 0 -11 -9 -21 -20 -24 -11 -3 -20 -9 -20 -14 0 -4 -16 -25 -35 -46 -19
-21 -35 -33 -35 -28 0 6 5 16 11 22 8 8 8 13 -1 18 -7 4 -14 -1 -17 -14 -7
-27 -33 -27 -40 -1 -5 19 -19 25 -55 22 -10 -1 -18 3 -18 8 0 19 -25 10 -53
-19 -15 -16 -27 -36 -27 -45 0 -19 -22 -34 -28 -18 -2 7 -13 10 -27 6 -12 -3
-26 -1 -29 4 -3 5 3 12 14 15 27 7 25 41 -2 59 -46 28 -81 -10 -81 -89 0 -25
-5 -33 -24 -38 l-23 -5 0 -219 c0 -166 3 -221 13 -224 9 -4 9 -6 0 -6 -19 -1
-16 -66 3 -85 18 -18 44 -21 44 -5 0 5 -4 8 -8 5 -12 -7 -29 7 -36 31 -7 21
-5 22 26 17 31 -5 32 -4 14 10 -23 19 -14 35 17 29 16 -3 26 1 30 11 4 11 1
13 -10 9 -12 -5 -15 -2 -10 9 3 9 0 19 -8 22 -8 3 -11 13 -8 25 3 12 9 18 14
15 5 -3 7 -9 4 -13 -2 -5 6 -18 19 -30 16 -15 26 -19 31 -11 4 6 15 8 25 5 14
-4 23 1 33 20 7 15 24 32 37 38 13 7 28 21 34 32 6 11 12 22 13 24 3 5 33 -26
33 -33 0 -3 -7 -6 -15 -6 -21 0 -55 -36 -55 -59 0 -20 27 -48 36 -38 7 7 9 47
3 66 -3 10 4 15 20 15 20 0 27 -6 33 -32 6 -23 14 -32 30 -32 15 0 18 3 11 13
-20 24 -20 54 -2 78 l19 24 0 -22 c0 -25 7 -28 30 -13 12 8 13 13 2 30 -7 12
-8 20 -2 20 5 0 10 7 10 16 0 8 4 13 9 9 10 -6 26 13 18 21 -6 6 -42 -13 -80
-43 -31 -25 -47 -29 -47 -13 0 6 3 9 8 8 4 -2 18 7 32 20 14 13 32 29 41 37 9
8 23 15 32 15 9 0 19 5 22 10 3 6 18 10 32 10 22 0 24 3 19 25 -6 24 7 35 19
15 10 -16 45 -12 45 5 0 11 -7 14 -25 9 -20 -5 -25 -2 -25 12 0 9 3 14 7 11 3
-4 13 -1 21 6 12 9 16 9 19 0 6 -17 43 -17 43 0 0 8 4 7 10 -3 7 -11 10 -7 10
18 0 22 -5 32 -16 32 -8 0 -12 5 -9 10 8 14 98 13 112 -1 8 -8 18 -6 37 6 14
10 26 13 26 9 0 -5 5 -2 10 6 5 8 7 23 4 34 -4 12 -2 16 5 12 6 -4 11 -16 11
-27 0 -14 6 -19 18 -17 11 2 19 16 22 42 6 45 24 59 26 21 1 -14 -2 -25 -7
-25 -4 0 -6 -7 -3 -15 4 -8 17 -15 31 -15 20 0 23 3 14 14 -8 10 -8 22 4 47 8
19 14 26 15 17 0 -19 17 -23 39 -9 10 6 12 20 8 43 -3 19 -1 41 4 49 5 8 9 12
10 9 0 -3 2 -16 5 -30 8 -47 13 -53 29 -40 11 9 18 8 35 -8 21 -19 21 -21 3
-31 -17 -10 -17 -10 0 -11 24 0 34 30 13 42 -20 11 -12 30 9 21 11 -3 15 2 15
17 0 18 -4 21 -25 18 -14 -3 -25 -1 -25 3 0 5 -7 9 -16 9 -11 0 -14 5 -9 18 4
9 8 23 8 30 0 6 6 12 14 12 16 0 17 -12 2 -27 -15 -15 -3 -33 23 -33 19 0 20
5 16 45 -5 45 4 60 16 28 5 -12 9 -14 18 -5 18 18 59 14 74 -5 12 -16 13 -15
14 10 0 25 3 27 34 23 19 -2 46 -12 60 -21 15 -10 29 -15 33 -11 3 3 1 6 -5 6
-17 0 -15 27 2 33 33 13 36 -45 4 -68 -21 -14 -23 -14 -26 2 -2 14 -12 18 -42
18 -42 0 -53 -10 -21 -20 11 -3 22 -12 25 -20 3 -8 12 -15 21 -15 8 0 15 -7
15 -16 0 -8 -4 -13 -9 -10 -10 7 -25 -24 -15 -33 3 -3 10 2 15 12 6 9 17 17
25 17 8 0 20 12 26 28 12 27 12 27 16 3 4 -24 4 -23 33 8 16 18 27 37 24 42
-4 5 -1 9 5 9 6 0 10 6 9 13 -3 19 12 48 22 41 5 -3 7 -10 4 -15 -4 -5 -1 -9
5 -9 7 0 9 8 5 21 -5 14 0 26 15 39 l21 18 -21 7 c-13 4 -19 12 -16 21 7 19
-24 31 -34 13 -13 -20 -22 -5 -18 33 l3 33 22 -22 c30 -30 39 -29 52 8 6 17
15 28 20 25 5 -3 7 2 4 13 -3 10 1 22 8 27 9 5 11 2 6 -9 -8 -21 6 -22 23 -2
7 8 9 15 6 15 -4 0 -1 6 6 14 9 10 15 10 20 3 15 -25 16 2 2 57 -8 32 -13 60
-10 63 8 8 27 -8 21 -18 -4 -5 -1 -9 5 -9 6 0 17 -15 25 -32 8 -18 14 -27 15
-19 0 10 9 12 35 8 26 -4 37 -2 45 11 8 14 9 13 10 -8 1 -23 2 -24 14 -7 12
15 14 15 19 3 4 -9 2 -18 -3 -21 -6 -4 -10 -12 -9 -18 0 -9 2 -8 6 1 2 6 9 10
14 6 5 -3 10 2 10 10 1 9 3 21 4 26 1 6 3 15 4 21 0 5 5 8 10 5 5 -4 12 0 14
6 3 7 6 3 6 -9 1 -13 -3 -23 -9 -23 -5 0 -10 -7 -10 -16 0 -23 24 -11 28 13 2
12 10 24 18 27 8 3 12 1 9 -4 -3 -5 1 -20 10 -33 8 -13 14 -30 12 -38 -2 -8
-2 -11 0 -7 2 4 11 4 19 1 8 -3 14 0 14 7 0 6 5 8 10 5 6 -4 8 -11 5 -16 -4
-5 0 -9 8 -9 8 0 18 7 21 16 9 24 7 36 -6 28 -7 -4 -8 -3 -4 4 10 16 36 15 36
0 1 -9 5 -8 13 3 7 8 21 19 32 23 19 8 19 9 -5 16 -32 9 -67 -4 -91 -33 -10
-12 -18 -17 -18 -12 -1 26 68 82 83 68 10 -10 60 -11 73 -1 8 7 10 3 6 -12 -3
-12 -12 -24 -19 -27 -16 -6 -19 -33 -4 -33 6 0 10 4 10 9 0 5 9 11 21 14 15 4
23 0 26 -14 8 -30 22 -12 19 26 -2 25 2 35 11 35 10 0 12 -7 8 -22 -6 -16 -4
-20 7 -15 11 4 14 -1 10 -21 -5 -25 -4 -26 12 -9 29 29 50 18 53 -30 3 -35
-14 -54 -28 -32 -8 11 -13 9 -29 -9 -11 -13 -27 -22 -37 -20 -29 7 -76 -21
-70 -41 5 -22 -28 -47 -39 -29 -4 6 0 14 8 19 9 5 19 21 22 35 8 32 27 52 44
46 16 -5 16 15 0 22 -7 3 -3 3 10 0 12 -3 22 -2 22 3 0 20 -40 10 -55 -14 -12
-18 -20 -22 -28 -14 -6 6 -18 11 -27 10 -9 0 -6 -4 8 -10 13 -5 20 -14 17 -20
-5 -8 -10 -8 -18 0 -17 17 -29 13 -22 -9 5 -15 3 -18 -9 -14 -22 8 -34 -26
-14 -40 9 -6 13 -22 11 -38 -3 -20 2 -28 16 -33 19 -6 19 -7 3 -24 -17 -17
-37 -7 -25 13 3 5 1 6 -5 2 -7 -4 -12 -3 -12 2 0 6 -9 8 -19 5 -16 -4 -19 -1
-14 16 3 12 1 21 -6 21 -8 0 -7 10 4 30 17 32 20 80 6 80 -5 0 -23 -19 -40
-42 -17 -23 -31 -35 -31 -27 -1 10 -4 9 -15 -5 -10 -14 -11 -24 -4 -38 8 -16
6 -19 -21 -24 -43 -9 -40 -35 4 -32 19 1 33 6 30 10 -3 4 0 13 6 20 6 7 18 22
26 33 15 19 15 19 11 -7 -2 -16 0 -28 4 -28 5 0 9 -7 9 -15 0 -8 -8 -15 -19
-15 -10 0 -24 -7 -31 -15 -7 -8 -24 -15 -37 -15 -16 0 -27 -7 -30 -20 -3 -11
-10 -20 -15 -20 -6 0 -8 7 -4 15 3 10 -1 15 -11 15 -9 0 -13 -3 -10 -7 4 -3 2
-12 -4 -20 -14 -16 3 -17 69 -4 35 7 40 6 31 -5 -6 -8 -18 -14 -25 -14 -8 0
-14 -5 -14 -12 0 -9 -3 -9 -11 -1 -7 7 -21 8 -42 2 -34 -10 -59 -29 -38 -29 7
0 9 -4 6 -10 -3 -5 -2 -10 3 -10 5 0 12 -9 15 -20 3 -11 1 -20 -4 -20 -5 0 -9
5 -9 12 0 9 -3 9 -12 0 -17 -17 -31 -15 -25 3 4 8 2 17 -3 20 -5 3 -12 -6 -16
-20 l-6 -25 -20 25 c-24 31 -34 31 -41 3 -4 -12 -9 -19 -13 -15 -4 3 -15 -4
-25 -17 -14 -17 -25 -22 -45 -18 -16 3 -24 1 -21 -4 3 -6 -8 -8 -27 -6 -21 2
-37 -2 -45 -12 -11 -14 -11 -16 3 -16 9 0 16 5 16 12 0 6 3 8 7 5 10 -11 -30
-43 -49 -39 -10 2 -18 -1 -18 -6 0 -21 -31 -20 -50 0 -17 18 -20 19 -26 5 -3
-9 -3 -21 1 -27 3 -5 2 -10 -4 -10 -5 0 -13 -9 -16 -20 -4 -11 -11 -18 -16
-15 -5 4 -9 2 -9 -3 0 -5 -10 -7 -23 -5 -13 3 -29 -2 -36 -11 -7 -8 -19 -12
-27 -9 -8 3 -14 0 -14 -7 0 -8 -9 -10 -26 -6 -17 5 -23 3 -19 -4 3 -5 -1 -10
-10 -10 -9 0 -14 -4 -11 -9 4 -5 -3 -7 -15 -4 -11 3 -18 11 -15 19 3 9 0 11
-11 7 -13 -5 -15 -2 -10 16 4 17 2 21 -11 19 -24 -5 -43 -47 -31 -70 6 -12 6
-18 -1 -18 -5 0 -10 -7 -10 -15 0 -8 -4 -15 -10 -15 -5 0 -10 -7 -10 -15 0
-13 -2 -13 -14 -3 -7 7 -11 19 -9 25 9 22 -16 14 -28 -8 -9 -17 -8 -23 2 -30
10 -6 5 -11 -18 -20 -18 -6 -33 -17 -33 -25 0 -8 -4 -14 -10 -14 -5 0 -10 -7
-10 -16 0 -10 6 -14 14 -11 17 7 30 -19 14 -29 -5 -4 -14 -1 -18 6 -4 7 -16 9
-29 5 -19 -6 -19 -8 -6 -21 8 -9 15 -21 15 -27 0 -8 -3 -8 -9 1 -4 8 -11 13
-15 13 -20 -3 -24 1 -18 21 4 18 2 20 -19 15 -13 -4 -27 -7 -31 -7 -16 0 -7
-19 10 -23 15 -3 15 -5 -3 -12 -11 -4 -27 -14 -35 -20 -26 -21 -50 -14 -50 13
0 37 -12 18 -16 -23 -2 -28 1 -35 12 -31 16 6 20 -19 4 -29 -6 -4 -8 -11 -5
-16 4 -5 -1 -9 -10 -9 -8 0 -21 12 -27 28 -7 15 -13 28 -14 30 -1 2 -11 -1
-22 -7 -15 -8 -23 -7 -32 4 -7 8 -16 12 -21 9 -5 -3 -9 0 -9 6 0 7 -8 9 -21 5
-13 -5 -25 -2 -30 6 -4 7 -11 10 -15 6 -4 -4 3 -16 16 -27 19 -17 20 -21 7
-26 -13 -5 -14 -9 -4 -25 13 -22 43 -25 50 -6 3 7 6 5 6 -6 2 -35 -30 -32 -64
8 -30 34 -55 40 -55 13 0 -7 5 -6 14 1 12 10 17 6 25 -26 9 -33 8 -40 -9 -58
-18 -17 -22 -18 -31 -5 -8 11 -12 12 -16 3 -2 -7 -11 -13 -19 -13 -10 0 -9 -5
6 -20 19 -19 33 -20 364 -19 257 0 346 3 350 12 3 9 5 9 5 1 1 -8 42 -12 136
-13 132 -2 136 -1 145 21 7 19 9 20 9 4 1 -12 6 -16 16 -13 8 4 17 2 20 -3 4
-6 42 -10 86 -10 51 0 78 4 74 10 -3 5 0 10 7 10 14 0 41 86 41 132 0 20 4 25
16 21 29 -11 32 -15 20 -29 -9 -11 -7 -14 10 -14 12 0 19 5 16 10 -3 6 -2 10
3 10 18 0 21 -13 6 -27 -8 -8 -12 -19 -9 -24 3 -5 1 -18 -5 -29 -7 -13 -7 -20
0 -20 5 0 10 5 10 10 0 6 3 9 8 9 19 -3 25 2 12 11 -9 6 -11 10 -3 10 7 0 10
7 7 18 -5 14 -4 15 5 2 6 -8 11 -23 11 -33 0 -26 24 -16 28 12 3 17 8 20 23
16 11 -4 26 -2 33 4 10 8 12 3 9 -22 -2 -22 0 -26 5 -12 7 22 19 25 40 12 7
-5 25 -10 40 -13 15 -3 35 -7 45 -10 13 -4 17 1 17 20 0 30 -5 32 -27 11 -19
-19 -24 -16 -17 12 6 23 40 37 48 19 3 -8 5 -7 5 1 1 7 8 10 18 6 10 -4 14 -2
10 4 -3 5 0 10 8 10 17 0 20 -13 5 -22 -5 -3 -10 -14 -10 -25 0 -10 -7 -21
-15 -24 -13 -4 -14 -10 -5 -26 12 -22 35 -17 26 6 -6 16 3 44 14 44 15 0 7
-49 -11 -69 -25 -26 -10 -34 19 -10 18 14 21 22 13 36 -7 13 -6 22 5 34 13 15
13 19 -2 33 -12 13 -14 20 -6 28 8 8 18 2 37 -21 15 -17 31 -29 36 -25 14 8
11 -4 -8 -34 l-17 -27 21 18 c14 12 23 15 28 8 3 -6 12 -11 18 -10 9 0 9 2 0
6 -19 7 -16 27 7 41 15 9 20 23 20 58 0 31 4 43 11 38 6 -3 16 0 21 7 8 11 9
10 4 -4 -3 -10 0 -17 7 -18 7 0 1 -4 -11 -10 -27 -10 -25 -32 4 -38 17 -3 17
-2 4 15 -8 10 -10 15 -3 11 7 -5 16 0 22 11 12 23 39 32 66 21 11 -4 15 -8 9
-8 -7 -1 -14 -8 -18 -16 -4 -12 -2 -13 13 -3 22 14 51 4 51 -17 0 -13 -3 -13
-20 -3 -10 7 -23 8 -27 4 -4 -5 -2 -11 5 -13 6 -3 12 -9 12 -14 0 -6 -4 -7
-10 -4 -5 3 -10 1 -10 -4 0 -14 13 -14 28 1 9 9 12 9 12 0 0 -7 -6 -15 -13
-18 -14 -5 -22 -54 -8 -54 21 0 72 23 63 29 -5 3 -12 17 -13 31 -3 19 0 25 14
23 14 -1 17 4 14 18 -6 23 8 25 17 2 4 -10 1 -20 -9 -25 -8 -5 -15 -14 -15
-19 0 -6 4 -8 8 -5 5 3 9 -8 10 -25 0 -17 -4 -29 -11 -28 -27 3 -47 -2 -47
-12 0 -5 4 -8 9 -4 5 3 12 -4 16 -15 7 -23 65 -29 65 -7 0 8 3 9 8 1 4 -6 22
-11 39 -12 l32 -1 0 635 c0 485 -3 634 -12 634 -8 0 -8 3 1 9 20 13 15 198 -6
210 -10 6 -16 23 -17 42 0 39 -34 52 -43 16 -5 -19 -6 -19 -12 -3 -5 16 -11
11 -32 -25 -15 -24 -23 -48 -18 -53 11 -11 59 24 60 44 1 10 4 9 10 -5 15 -35
11 -55 -9 -55 -11 0 -23 -5 -26 -10 -4 -6 -12 -7 -18 -3 -7 4 -21 9 -32 10
-10 2 -22 8 -26 14 -5 8 -12 8 -27 0 -12 -6 -25 -11 -29 -10 -20 3 -34 -2 -28
-11 8 -13 -13 -50 -29 -50 -38 0 -56 75 -24 98 10 7 18 22 18 33 0 10 5 19 10
19 6 0 10 -4 10 -10 0 -5 9 -10 19 -10 25 0 51 37 51 72 0 15 7 31 16 36 10 5
17 24 19 46 2 30 0 34 -12 24 -12 -10 -13 -7 -8 15 9 34 4 34 -28 -3z m-15
-162 c-6 -6 -15 -8 -19 -4 -4 4 -1 11 7 16 19 12 27 3 12 -12z m64 -134 c-4
-9 -9 -15 -11 -12 -3 3 -3 13 1 22 4 9 9 15 11 12 3 -3 3 -13 -1 -22z m-62
-54 c-10 -9 -64 -2 -64 9 0 3 10 11 23 16 24 11 57 -9 41 -25z m56 -112 c0
-10 -4 -18 -9 -18 -5 0 -7 9 -4 20 3 12 0 20 -6 20 -7 0 -9 5 -5 11 8 14 24
-8 24 -33z m-84 12 c8 0 14 -5 14 -11 0 -19 -35 -4 -37 16 -2 11 0 14 3 8 3
-7 12 -13 20 -13z m-571 -49 c-7 -23 -25 -29 -25 -8 0 14 21 39 28 33 2 -3 1
-14 -3 -25z m-235 10 c0 -12 -20 -25 -27 -18 -7 7 6 27 18 27 5 0 9 -4 9 -9z
m790 -7 c0 -8 -5 -12 -10 -9 -6 4 -8 11 -5 16 9 14 15 11 15 -7z m125 6 c3 -5
1 -10 -4 -10 -6 0 -11 5 -11 10 0 6 2 10 4 10 3 0 8 -4 11 -10z m-1078 -22
c-3 -8 -6 -5 -6 6 -1 11 2 17 5 13 3 -3 4 -12 1 -19z m198 12 c-3 -5 -10 -10
-16 -10 -5 0 -9 5 -9 10 0 6 7 10 16 10 8 0 12 -4 9 -10z m155 -16 c0 -8 -8
-14 -17 -13 -10 0 -13 3 -6 5 7 3 9 12 6 21 -4 11 -2 14 5 9 7 -4 12 -14 12
-22z m503 1 c-3 -9 -8 -14 -10 -11 -3 3 -2 9 2 15 9 16 15 13 8 -4z m157 -5
c0 -11 -4 -20 -9 -20 -5 0 -7 9 -4 20 3 11 7 20 9 20 2 0 4 -9 4 -20z m-114
-37 c-11 -11 -17 4 -9 23 7 18 8 18 11 1 2 -10 1 -21 -2 -24z m77 13 c4 -10 1
-13 -9 -9 -7 3 -14 9 -14 14 0 14 17 10 23 -5z m-49 -9 c-2 -7 4 -22 16 -32
11 -10 19 -29 19 -44 -1 -17 -3 -20 -6 -8 -5 20 -14 22 -31 5 -9 -9 -12 -7
-12 11 0 16 -4 21 -15 17 -22 -8 -18 10 7 39 24 28 30 31 22 12z m109 -14 c-3
-7 -9 -13 -14 -13 -5 0 -9 6 -9 13 0 8 6 14 14 14 8 0 12 -6 9 -14z m27 -8
c-7 -9 -15 -13 -17 -11 -7 7 7 26 19 26 6 0 6 -6 -2 -15z m-1251 -49 c8 -13
10 -29 7 -35 -4 -6 -1 -11 8 -11 8 0 16 -3 19 -7 2 -5 2 -3 1 4 -2 6 5 17 13
25 14 11 16 11 10 -4 -4 -12 0 -21 13 -28 25 -13 30 -13 30 5 0 8 5 15 10 15
14 0 12 -37 -2 -44 -10 -5 -10 -7 0 -12 6 -3 12 -10 12 -15 0 -6 -5 -7 -12 -3
-7 5 -8 3 -3 -6 12 -19 13 -60 1 -53 -5 4 -7 -1 -3 -11 6 -14 3 -15 -13 -6
-11 6 -20 17 -20 25 0 20 -16 19 -24 -1 -4 -9 -9 -14 -13 -11 -3 4 -11 3 -17
-3 -8 -6 -12 -3 -13 11 -1 10 5 19 13 19 8 0 14 9 13 23 -1 16 -2 18 -6 5 -8
-32 -33 6 -33 49 0 22 -7 48 -15 59 -18 24 -19 34 -2 34 8 0 19 -11 26 -24z
m1132 -113 c-10 -17 -10 -17 -11 0 0 24 -19 21 -29 -5 -5 -15 -10 -18 -15 -9
-6 9 -11 8 -21 -6 -10 -14 -11 -21 -2 -32 10 -12 9 -13 -1 -7 -8 5 -19 1 -27
-10 -14 -18 -14 -18 -15 4 0 22 -15 31 -22 11 -2 -6 -16 1 -32 16 -34 32 -30
41 10 20 39 -20 51 -19 57 5 4 15 1 20 -10 18 -9 -2 -18 2 -20 9 -3 7 5 10 21
9 14 -2 26 0 26 5 0 5 7 6 15 3 8 -4 15 -2 15 4 0 6 9 8 20 5 13 -3 20 0 20 8
0 7 7 4 16 -9 11 -16 12 -27 5 -39z m39 53 c0 -3 -4 -8 -10 -11 -5 -3 -10 -1
-10 4 0 6 5 11 10 11 6 0 10 -2 10 -4z m-1336 -58 c-3 -4 -1 -8 5 -8 5 0 13 5
16 10 4 6 11 8 16 5 13 -9 11 -45 -2 -45 -6 0 -8 8 -5 18 6 16 5 16 -7 0 -8
-10 -17 -15 -21 -11 -4 4 -4 0 0 -10 3 -9 14 -17 23 -17 11 -1 9 -4 -8 -14
-29 -16 -74 0 -61 23 4 8 5 22 3 32 -4 13 0 19 11 19 9 0 16 8 16 18 0 14 2
15 9 2 6 -8 7 -18 5 -22z m359 10 c-11 -13 -28 -36 -36 -53 -9 -16 -16 -25
-17 -18 0 6 -3 19 -7 29 -5 14 -3 16 11 11 14 -5 17 -3 12 8 -3 9 0 15 8 15 7
0 19 7 26 15 7 8 15 15 18 15 3 0 -4 -10 -15 -22z m1167 2 c0 -5 -5 -10 -11
-10 -5 0 -7 5 -4 10 3 6 8 10 11 10 2 0 4 -4 4 -10z m-78 -42 c-7 -7 -12 -8
-12 -2 0 14 12 26 19 19 2 -3 -1 -11 -7 -17z m-1326 -15 c-10 -10 -19 5 -10
18 6 11 8 11 12 0 2 -7 1 -15 -2 -18z m1407 21 c9 -3 12 -14 9 -31 -3 -15 1
-29 9 -34 8 -5 10 -9 4 -9 -5 0 -21 9 -35 20 -20 16 -22 20 -7 20 25 0 21 28
-5 33 -14 2 -16 5 -6 6 9 0 23 -1 31 -5z m-1608 -23 c-3 -6 -11 -11 -17 -11
-6 0 -6 6 2 15 14 17 26 13 15 -4z m1387 -6 c-5 -26 -16 -32 -27 -15 -3 6 -1
10 4 10 6 0 11 7 11 15 0 8 4 15 9 15 4 0 6 -11 3 -25z m128 -12 c0 -7 -5 -13
-11 -13 -5 0 -7 5 -4 10 3 6 2 10 -4 10 -6 0 -8 7 -4 16 5 13 7 13 14 2 5 -7
9 -19 9 -25z m-1705 7 c0 -14 -13 -18 -90 -27 l-50 -6 25 21 c14 11 29 17 33
12 5 -4 21 -2 35 6 30 16 47 14 47 -6z m659 5 c-4 -8 -11 -15 -16 -15 -6 0 -5
6 2 15 7 8 14 15 16 15 2 0 1 -7 -2 -15z m1176 5 c0 -5 -5 -10 -11 -10 -5 0
-7 5 -4 10 3 6 8 10 11 10 2 0 4 -4 4 -10z m-175 -58 c-3 -3 -17 5 -31 18 -22
22 -23 25 -7 31 12 4 21 -2 30 -19 8 -14 11 -27 8 -30z m-344 25 c-10 -9 -11
-8 -5 6 3 10 9 15 12 12 3 -3 0 -11 -7 -18z m-86 -7 c-5 -15 -2 -20 12 -21 10
0 13 -3 5 -6 -6 -2 -10 -9 -6 -14 3 -5 3 -9 0 -9 -11 0 -26 39 -20 54 9 23 16
20 9 -4z m302 -45 c12 -9 10 -11 -6 -11 -14 0 -21 7 -21 18 0 10 -3 17 -7 17
-22 -4 -43 2 -43 11 0 7 6 7 20 0 17 -9 20 -8 21 12 0 20 2 19 11 -7 6 -16 18
-35 25 -40z m210 50 c0 -8 -3 -13 -6 -10 -3 3 -15 -11 -28 -32 -23 -39 -33
-30 -11 10 8 17 33 43 44 47 0 0 1 -7 1 -15z m-1323 -20 c3 -8 1 -15 -4 -15
-6 0 -10 7 -10 15 0 8 2 15 4 15 2 0 6 -7 10 -15z m769 -12 c-17 -13 -17 -14
0 -9 9 3 17 1 17 -4 0 -13 -41 -13 -60 0 -12 8 -11 10 8 10 12 0 25 7 28 15 4
8 10 12 16 9 5 -3 1 -13 -9 -21z m370 7 c3 -11 1 -20 -4 -20 -5 0 -9 6 -9 14
0 8 -6 17 -12 19 -8 4 -7 6 3 6 9 1 19 -8 22 -19z m-173 -11 c0 -5 -4 -9 -10
-9 -5 0 -10 7 -10 16 0 8 5 12 10 9 6 -3 10 -10 10 -16z m-61 2 c8 -5 11 -16
8 -25 -4 -10 -1 -16 8 -16 10 0 15 -10 15 -27 0 -19 -3 -24 -9 -15 -6 10 -10
10 -21 -3 -14 -16 -30 -20 -30 -7 0 5 12 14 27 21 25 11 26 14 10 22 -10 6
-15 14 -12 19 9 15 -15 22 -31 9 -11 -9 -14 -22 -9 -46 4 -25 2 -35 -10 -39
-24 -9 -18 -26 8 -20 l22 6 -23 -12 c-30 -15 -52 3 -32 26 7 9 17 13 23 9 6
-3 7 -1 3 5 -4 7 -14 12 -22 12 -8 0 -14 5 -14 10 0 6 7 10 15 10 8 0 15 5 15
10 0 14 30 60 39 60 3 0 12 -4 20 -9z m-1209 -20 c0 -10 -7 -24 -15 -31 -13
-10 -15 -9 -15 12 0 14 3 28 7 31 12 13 23 7 23 -12z m1543 5 c4 -10 1 -13 -9
-9 -8 3 -14 -1 -14 -11 0 -9 -5 -16 -11 -16 -5 0 -7 -4 -4 -10 3 -5 1 -10 -4
-10 -6 0 -11 13 -11 30 0 23 3 28 17 23 11 -4 14 -3 9 5 -4 7 -1 12 7 12 8 0
17 -7 20 -14z m-536 -2 c-3 -3 -12 -4 -19 -1 -8 3 -5 6 6 6 11 1 17 -2 13 -5z
m687 -21 c-13 -14 -17 -14 -26 -2 -7 11 -11 11 -15 2 -2 -7 -9 -13 -15 -13
-26 0 15 27 42 28 28 1 29 -1 14 -15z m-1134 -14 c0 -6 -4 -7 -10 -4 -5 3 -10
11 -10 16 0 6 5 7 10 4 6 -3 10 -11 10 -16z m540 17 c0 -3 -4 -8 -10 -11 -5
-3 -10 -1 -10 4 0 6 5 11 10 11 6 0 10 -2 10 -4z m285 -16 c-4 -6 5 -10 19
-10 29 0 35 -15 10 -24 -10 -4 -22 1 -29 11 -12 16 -11 33 1 33 3 0 2 -4 -1
-10z m-1328 -22 c-3 -8 -6 -5 -6 6 -1 11 2 17 5 13 3 -3 4 -12 1 -19z m910
-31 c-2 -7 0 -20 5 -29 6 -13 5 -18 -6 -18 -14 0 -56 58 -56 76 1 5 7 -2 14
-15 l13 -24 7 29 c7 25 9 27 17 11 6 -10 8 -23 6 -30z m713 28 c0 -8 -4 -15
-10 -15 -5 0 -7 7 -4 15 4 8 8 15 10 15 2 0 4 -7 4 -15z m-610 -8 c0 -16 -67
-39 -76 -26 -5 8 10 13 30 10 5 -1 6 4 3 12 -3 8 4 14 19 15 14 1 24 -4 24
-11z m261 -4 c-9 -18 -11 -25 -11 -43 0 -5 -4 -10 -10 -10 -15 0 -7 43 10 57
20 17 22 16 11 -4z m-55 -30 c-11 -11 -19 6 -11 24 8 17 8 17 12 0 3 -10 2
-21 -1 -24z m208 12 c-8 -21 -30 -25 -30 -6 0 9 8 18 18 18 10 1 15 -3 12 -12z
m-80 -53 c0 -1 -14 4 -29 12 -16 8 -32 13 -37 10 -12 -8 -10 10 3 23 7 7 18 3
37 -16 15 -14 27 -27 26 -29z m10 43 c-7 -16 -24 -21 -24 -6 0 8 7 13 27 20 1
1 0 -6 -3 -14z m-1329 -15 c3 -5 -2 -10 -12 -10 -11 0 -24 -5 -31 -12 -7 -7
-12 -8 -12 -4 0 9 31 35 42 36 4 0 10 -4 13 -10z m1035 -14 c0 -8 -7 -16 -15
-20 -15 -5 -21 14 -8 27 11 12 23 8 23 -7z m-1680 -8 c0 -4 -4 -8 -9 -8 -6 0
-12 4 -15 8 -3 5 1 9 9 9 8 0 15 -4 15 -9z m554 -12 c-3 -9 -10 -16 -15 -16
-5 0 -4 9 3 20 14 22 21 20 12 -4z m1306 9 c19 -23 8 -25 -14 -4 -11 11 -15
19 -9 19 6 0 16 -7 23 -15z m-120 -10 c-6 -8 -9 -18 -7 -23 3 -4 -5 -8 -18 -8
-27 0 -23 17 8 32 31 16 31 16 17 -1z m170 2 c0 -7 -10 -18 -22 -26 -23 -14
-23 -13 -5 7 14 15 15 21 5 25 -8 4 -7 6 5 6 9 1 17 -5 17 -12z m-365 -6 c3
-5 1 -12 -5 -16 -5 -3 -10 1 -10 9 0 18 6 21 15 7z m-1699 -34 c20 -18 24 -25
13 -29 -8 -3 -24 8 -37 23 -28 35 -14 38 24 6z m1819 13 c-3 -5 -10 -10 -16
-10 -5 0 -9 5 -9 10 0 6 7 10 16 10 8 0 12 -4 9 -10z m-1715 -29 c0 -10 -30
-24 -37 -17 -3 3 -2 9 2 15 8 13 35 15 35 2z m510 -25 c0 -3 -4 -8 -10 -11 -5
-3 -10 -1 -10 4 0 6 5 11 10 11 6 0 10 -2 10 -4z m-716 -35 c3 -5 -1 -11 -9
-15 -9 -3 -15 0 -15 9 0 16 16 20 24 6z m416 -120 c0 -5 -7 -12 -16 -15 -14
-5 -15 -4 -4 9 14 17 20 19 20 6z m590 -76 c-7 -8 -16 -15 -21 -15 -5 0 -1 9
8 20 9 11 19 17 21 15 3 -3 -1 -11 -8 -20z m-951 -71 c2 -2 -8 -4 -22 -4 -18
0 -27 5 -27 15 0 13 4 14 23 4 12 -6 24 -13 26 -15z m2027 -39 c-3 -20 -16
-31 -16 -13 0 13 8 28 16 28 1 0 1 -7 0 -15z m455 -26 c-5 -13 -10 -19 -10
-12 -1 15 10 45 15 40 3 -2 0 -15 -5 -28z m-221 -13 c0 -5 -7 -3 -15 4 -8 7
-12 17 -9 22 7 10 24 -9 24 -26z m-416 -34 c-8 -20 -12 -47 -9 -60 4 -17 2
-23 -7 -20 -7 3 -15 19 -19 37 -5 25 -3 35 12 44 11 7 19 20 19 30 0 10 4 15
10 12 6 -4 4 -20 -6 -43z m300 21 c-4 -15 -7 -33 -7 -40 0 -28 -15 -11 -19 22
-3 25 0 35 12 39 8 2 16 4 18 5 1 0 -1 -11 -4 -26z m246 17 c0 -5 -5 -10 -11
-10 -5 0 -7 5 -4 10 3 6 8 10 11 10 2 0 4 -4 4 -10z m55 -9 c-3 -6 -11 -11
-16 -11 -5 0 -4 6 3 14 14 16 24 13 13 -3z m-510 -36 c1 -25 -2 -32 -13 -28
-8 4 -11 14 -8 27 3 11 6 27 6 35 0 29 14 -1 15 -34z m-1990 25 c3 -5 1 -10
-4 -10 -6 0 -11 5 -11 10 0 6 2 10 4 10 3 0 8 -4 11 -10z m2167 -42 c12 -17
15 -29 8 -33 -6 -4 -7 -11 -4 -17 9 -14 -30 7 -50 28 -15 14 -15 18 1 45 11
18 19 25 22 17 2 -7 12 -25 23 -40z m-326 -5 c-10 -26 -18 -8 -9 23 5 21 8 24
11 11 2 -10 1 -25 -2 -34z m691 25 c-3 -8 -6 -5 -6 6 -1 11 2 17 5 13 3 -3 4
-12 1 -19z m-473 -4 c3 -8 2 -12 -4 -9 -6 3 -10 10 -10 16 0 14 7 11 14 -7z
m436 6 c0 -5 -4 -10 -10 -10 -5 0 -10 5 -10 10 0 6 5 10 10 10 6 0 10 -4 10
-10z m-718 -22 c-7 -7 -12 -8 -12 -2 0 14 12 26 19 19 2 -3 -1 -11 -7 -17z
m748 -6 c0 -4 -10 -9 -22 -9 -18 -2 -20 0 -8 7 18 12 30 13 30 2z m-1920 -12
c0 -5 -4 -10 -10 -10 -5 0 -10 5 -10 10 0 6 5 10 10 10 6 0 10 -4 10 -10z
m1010 -62 c0 -12 -7 -18 -21 -18 -11 0 -18 -4 -15 -9 3 -5 -1 -11 -9 -15 -8
-3 -12 -12 -9 -21 3 -8 1 -15 -5 -15 -26 0 -21 30 8 59 38 37 39 51 5 51 -24
0 -25 -2 -13 -17 12 -15 12 -16 -3 -10 -10 3 -20 2 -23 -3 -8 -13 -25 -13 -25
0 0 5 6 9 13 7 7 -1 11 7 10 20 -1 11 4 24 12 27 8 3 15 1 15 -5 0 -6 8 -3 17
7 16 16 18 15 30 -12 7 -16 12 -37 13 -46z m190 57 c-9 -11 -9 -15 -1 -15 7 0
9 -5 5 -11 -5 -8 -10 -6 -16 5 -10 18 -3 36 14 36 7 0 6 -6 -2 -15z m690 -10
c0 -2 -10 -10 -22 -16 -21 -11 -22 -11 -9 4 13 16 31 23 31 12z m-1640 -30
c-7 -9 -15 -13 -17 -11 -7 7 7 26 19 26 6 0 6 -6 -2 -15z m-79 -13 c-7 -2 -18
1 -23 6 -8 8 -4 9 13 5 13 -4 18 -8 10 -11z m657 -12 c-7 -10 -14 -17 -17 -15
-4 4 18 35 25 35 2 0 -1 -9 -8 -20z m-757 -34 c12 -13 11 -29 -1 -21 -5 3 -10
2 -10 -4 0 -6 -7 -8 -15 -5 -12 5 -13 10 -4 20 6 8 9 20 6 28 -3 8 -3 17 1 21
4 4 9 -1 10 -12 2 -10 8 -22 13 -27z m102 4 c-6 -23 -19 -26 -26 -6 -5 13 5
23 25 25 3 1 4 -8 1 -19z m443 8 c4 -6 3 -8 -4 -4 -5 3 -13 0 -15 -6 -3 -8 -6
-6 -6 5 -1 19 14 23 25 5z m44 1 c0 -5 -4 -8 -9 -5 -5 4 -12 0 -14 -6 -3 -8
-6 -6 -6 5 -1 9 6 17 14 17 8 0 15 -5 15 -11z m209 -20 c-19 -12 -24 -2 -8 17
9 11 14 13 17 4 3 -7 -2 -16 -9 -21z m-293 9 c4 -7 3 -8 -4 -4 -7 4 -12 2 -12
-3 0 -6 -7 -11 -16 -11 -14 0 -14 3 -4 15 15 18 26 19 36 3z m-316 -8 c0 -5
-5 -10 -11 -10 -5 0 -7 5 -4 10 3 6 8 10 11 10 2 0 4 -4 4 -10z m180 6 c0 -3
-4 -8 -10 -11 -5 -3 -10 -1 -10 4 0 6 5 11 10 11 6 0 10 -2 10 -4z m547 -12
c-3 -3 -12 -4 -19 -1 -8 3 -5 6 6 6 11 1 17 -2 13 -5z m-1053 -12 c3 -5 -1 -9
-9 -9 -8 0 -12 4 -9 9 3 4 7 8 9 8 2 0 6 -4 9 -8z"/>
<path d="M1255 969 c-4 -12 -2 -26 4 -32 8 -8 11 -2 11 21 0 37 -6 41 -15 11z"/>
<path d="M2245 990 c-3 -5 -2 -10 4 -10 5 0 13 5 16 10 3 6 2 10 -4 10 -5 0
-13 -4 -16 -10z"/>
<path d="M718 1706 c-19 -14 -24 -36 -9 -36 12 0 33 28 29 39 -2 6 -10 4 -20
-3z"/>
<path d="M1708 1700 c-7 -24 -3 -38 8 -28 3 4 4 17 2 30 l-3 23 -7 -25z"/>
<path d="M2325 1709 c-4 -6 -5 -12 -2 -15 2 -3 7 2 10 11 7 17 1 20 -8 4z"/>
<path d="M2552 1700 c-17 -27 -5 -75 14 -59 15 12 20 79 6 79 -4 0 -13 -9 -20
-20z"/>
<path d="M2123 1688 c4 -13 0 -26 -8 -32 -18 -14 -24 -68 -8 -73 8 -3 22 17
36 49 19 42 21 56 11 66 -20 20 -37 15 -31 -10z"/>
<path d="M2010 1696 c0 -2 7 -7 16 -10 8 -3 12 -2 9 4 -6 10 -25 14 -25 6z"/>
<path d="M230 1675 c0 -8 5 -15 10 -15 6 0 10 7 10 15 0 8 -4 15 -10 15 -5 0
-10 -7 -10 -15z"/>
<path d="M1000 1679 c0 -5 5 -7 10 -4 6 3 10 8 10 11 0 2 -4 4 -10 4 -5 0 -10
-5 -10 -11z"/>
<path d="M804 1667 c-8 -21 2 -35 16 -21 5 5 6 15 0 24 -8 12 -10 12 -16 -3z"/>
<path d="M2480 1661 c0 -7 -4 -10 -9 -7 -10 7 -27 -34 -36 -86 -4 -24 -2 -38
5 -38 5 0 10 6 10 14 0 8 9 18 20 21 11 4 18 10 15 14 -2 5 1 22 7 39 10 25
10 34 0 44 -9 9 -12 9 -12 -1z"/>
<path d="M271 1647 c-1 -10 -8 -32 -17 -49 -12 -22 -13 -33 -4 -42 22 -22 49
51 32 87 -9 19 -11 19 -11 4z"/>
<path d="M540 1621 c0 -14 18 -23 31 -15 8 4 7 9 -2 15 -18 11 -29 11 -29 0z"/>
<path d="M2230 1598 c0 -36 4 -35 14 5 4 16 2 27 -4 27 -5 0 -10 -14 -10 -32z"/>
<path d="M2257 1603 c-4 -3 -7 -13 -7 -22 1 -13 3 -13 11 2 11 19 8 33 -4 20z"/>
<path d="M438 1586 c-10 -10 -18 -21 -18 -26 0 -5 -3 -15 -6 -24 -4 -11 0 -16
15 -16 22 0 36 32 29 66 -3 17 -4 17 -20 0z"/>
<path d="M800 1538 c0 -9 5 -20 10 -23 13 -8 13 5 0 25 -8 13 -10 13 -10 -2z"/>
<path d="M375 1530 c3 -5 8 -10 11 -10 2 0 4 5 4 10 0 6 -5 10 -11 10 -5 0 -7
-4 -4 -10z"/>
<path d="M565 1530 c-3 -5 1 -10 9 -10 9 0 16 5 16 10 0 6 -4 10 -9 10 -6 0
-13 -4 -16 -10z"/>
<path d="M1774 1495 c-9 -22 1 -29 15 -11 8 10 9 16 1 21 -5 3 -13 -1 -16 -10z"/>
<path d="M2118 1480 c-7 -11 -23 -20 -35 -20 -13 0 -23 -4 -23 -10 0 -5 19
-10 42 -10 32 0 39 3 30 12 -7 7 -8 17 -1 30 13 24 2 23 -13 -2z"/>
<path d="M2155 1470 c-3 -5 -1 -10 4 -10 6 0 11 5 11 10 0 6 -2 10 -4 10 -3 0
-8 -4 -11 -10z"/>
<path d="M2185 1470 c-3 -5 -1 -10 4 -10 6 0 11 5 11 10 0 6 -2 10 -4 10 -3 0
-8 -4 -11 -10z"/>
<path d="M1791 1454 c0 -11 3 -14 6 -6 3 7 2 16 -1 19 -3 4 -6 -2 -5 -13z"/>
<path d="M1952 1449 c-17 -27 -12 -31 12 -13 13 9 16 18 10 24 -6 6 -14 2 -22
-11z"/>
<path d="M530 1440 c0 -5 7 -10 15 -10 8 0 15 5 15 10 0 6 -7 10 -15 10 -8 0
-15 -4 -15 -10z"/>
<path d="M0 1280 c0 -54 2 -61 15 -50 20 16 20 84 0 100 -13 11 -15 4 -15 -50z"/>
<path d="M400 1259 c0 -5 5 -7 10 -4 6 3 10 8 10 11 0 2 -4 4 -10 4 -5 0 -10
-5 -10 -11z"/>
<path d="M180 1250 c0 -5 5 -10 11 -10 5 0 7 5 4 10 -3 6 -8 10 -11 10 -2 0
-4 -4 -4 -10z"/>
<path d="M1665 1120 c3 -5 10 -10 16 -10 5 0 9 5 9 10 0 6 -7 10 -16 10 -8 0
-12 -4 -9 -10z"/>
<path d="M1850 1115 c0 -8 5 -15 10 -15 6 0 10 7 10 15 0 8 -4 15 -10 15 -5 0
-10 -7 -10 -15z"/>
<path d="M2070 1120 c-8 -5 -11 -12 -8 -16 10 -9 38 3 38 16 0 12 -10 13 -30
0z"/>
<path d="M1722 1098 c2 -5 8 -9 13 -9 5 0 11 4 13 9 1 5 -4 9 -13 9 -9 0 -14
-4 -13 -9z"/>
<path d="M2000 1100 c0 -5 5 -10 10 -10 6 0 10 5 10 10 0 6 -4 10 -10 10 -5 0
-10 -4 -10 -10z"/>
<path d="M1660 1080 c0 -6 7 -10 15 -10 8 0 15 2 15 4 0 2 -7 6 -15 10 -8 3
-15 1 -15 -4z"/>
<path d="M1905 1080 c-3 -5 -2 -17 3 -27 9 -15 11 -14 20 4 15 27 -7 49 -23
23z"/>
<path d="M2154 1076 c-10 -8 -15 -18 -11 -22 4 -4 17 2 30 14 24 25 12 30 -19
8z"/>
<path d="M1770 1050 c0 -5 5 -10 10 -10 6 0 10 5 10 10 0 6 -4 10 -10 10 -5 0
-10 -4 -10 -10z"/>
<path d="M1750 1019 c0 -5 5 -7 10 -4 6 3 10 8 10 11 0 2 -4 4 -10 4 -5 0 -10
-5 -10 -11z"/>
<path d="M1780 1015 c-10 -12 -10 -15 4 -15 9 0 16 7 16 15 0 8 -2 15 -4 15
-2 0 -9 -7 -16 -15z"/>
<path d="M1516 994 c-9 -24 -8 -25 13 -12 11 7 17 16 15 20 -8 13 -21 9 -28
-8z"/>
<path d="M1738 981 c-1 -6 -20 -12 -41 -14 -46 -5 -58 -19 -55 -69 2 -34 28
-65 28 -34 0 8 -6 16 -12 19 -18 6 -3 19 26 22 14 2 30 6 37 11 8 4 9 3 5 -4
-4 -7 -2 -12 4 -12 6 0 13 7 17 16 3 8 11 13 17 11 7 -3 13 7 14 26 2 17 0 28
-4 24 -4 -4 -13 -2 -20 4 -8 6 -13 6 -16 0z"/>
<path d="M1841 974 c0 -11 3 -14 6 -6 3 7 2 16 -1 19 -3 4 -6 -2 -5 -13z"/>
<path d="M1534 943 c-3 -10 -9 -25 -14 -34 -12 -22 -1 -32 18 -16 13 10 15 9
9 -5 -3 -10 -2 -20 4 -23 5 -4 12 1 15 9 3 9 13 16 21 16 9 0 13 6 9 15 -3 8
-1 15 4 15 6 0 10 -4 10 -10 0 -5 5 -10 11 -10 6 0 9 12 7 27 -3 23 -8 27 -46
30 -34 3 -43 1 -48 -14z"/>
<path d="M1977 953 c-12 -11 -8 -23 8 -23 8 0 15 7 15 15 0 16 -12 20 -23 8z"/>
<path d="M547 916 c-4 -15 -6 -31 -2 -34 10 -10 16 6 13 35 l-3 28 -8 -29z"/>
<path d="M387 907 c-3 -7 -2 -19 3 -26 5 -9 9 -8 14 5 4 9 3 21 -2 26 -6 6
-12 4 -15 -5z"/>
<path d="M495 890 c-3 -5 1 -10 9 -10 9 0 16 5 16 10 0 6 -4 10 -9 10 -6 0
-13 -4 -16 -10z"/>
<path d="M1784 884 c3 -8 6 -18 6 -20 0 -2 5 -4 10 -4 16 0 11 27 -6 34 -12 5
-15 2 -10 -10z"/>
<path d="M1700 881 c0 -5 6 -14 14 -20 12 -10 13 -8 9 8 -5 21 -23 30 -23 12z"/>
<path d="M1630 841 c0 -5 7 -12 16 -15 14 -5 15 -4 4 9 -14 17 -20 19 -20 6z"/>
<path d="M376 824 c-4 -9 -4 -19 -1 -22 2 -3 7 3 11 12 4 9 4 19 1 22 -2 3 -7
-3 -11 -12z"/>
<path d="M1275 830 c-3 -5 -1 -10 4 -10 6 0 11 5 11 10 0 6 -2 10 -4 10 -3 0
-8 -4 -11 -10z"/>
<path d="M1167 824 c-8 -8 1 -24 14 -24 5 0 9 7 9 15 0 15 -12 20 -23 9z"/>
<path d="M1716 823 c-12 -12 -6 -43 8 -43 18 0 28 37 11 44 -7 2 -16 2 -19 -1z"/>
<path d="M1450 799 c0 -5 5 -7 10 -4 6 3 10 8 10 11 0 2 -4 4 -10 4 -5 0 -10
-5 -10 -11z"/>
<path d="M1500 800 c0 -5 4 -10 9 -10 6 0 13 5 16 10 3 6 -1 10 -9 10 -9 0
-16 -4 -16 -10z"/>
<path d="M1138 793 c-18 -4 -34 -33 -18 -33 6 0 10 -11 10 -25 0 -14 4 -25 10
-25 5 0 7 -6 4 -14 -8 -21 11 -28 42 -15 46 17 62 56 19 45 -21 -5 -25 -3 -25
15 0 14 -5 19 -14 16 -20 -8 -28 4 -14 20 13 16 9 21 -14 16z"/>
<path d="M1205 780 c-3 -5 -2 -10 4 -10 5 0 13 5 16 10 3 6 2 10 -4 10 -5 0
-13 -4 -16 -10z"/>
<path d="M1250 769 c0 -5 5 -7 10 -4 6 3 10 8 10 11 0 2 -4 4 -10 4 -5 0 -10
-5 -10 -11z"/>
<path d="M1665 770 c4 -6 11 -8 16 -5 14 9 11 15 -7 15 -8 0 -12 -5 -9 -10z"/>
<path d="M1715 760 c3 -5 8 -10 11 -10 2 0 4 5 4 10 0 6 -5 10 -11 10 -5 0 -7
-4 -4 -10z"/>
<path d="M1420 744 c0 -8 5 -12 10 -9 6 3 10 10 10 16 0 5 -4 9 -10 9 -5 0
-10 -7 -10 -16z"/>
<path d="M1610 750 c0 -5 5 -10 10 -10 6 0 10 5 10 10 0 6 -4 10 -10 10 -5 0
-10 -4 -10 -10z"/>
<path d="M1245 730 c-3 -5 1 -10 9 -10 9 0 16 5 16 10 0 6 -4 10 -9 10 -6 0
-13 -4 -16 -10z"/>
<path d="M1490 725 c0 -3 9 -15 20 -27 11 -12 20 -17 20 -11 0 7 -7 19 -16 27
-16 17 -24 20 -24 11z"/>
<path d="M1235 700 c-3 -5 -1 -10 4 -10 6 0 11 5 11 10 0 6 -2 10 -4 10 -3 0
-8 -4 -11 -10z"/>
<path d="M1455 700 c-3 -5 -1 -10 4 -10 6 0 11 5 11 10 0 6 -2 10 -4 10 -3 0
-8 -4 -11 -10z"/>
<path d="M0 665 c0 -15 4 -24 10 -20 5 3 10 12 10 20 0 8 -4 17 -10 20 -6 4
-10 -5 -10 -20z"/>
<path d="M1005 670 c-3 -5 -1 -10 4 -10 6 0 11 5 11 10 0 6 -2 10 -4 10 -3 0
-8 -4 -11 -10z"/>
<path d="M1266 665 c5 -13 9 -13 23 -3 9 7 18 14 20 15 2 2 -8 3 -22 3 -20 0
-25 -4 -21 -15z"/>
<path d="M1124 655 c10 -8 23 -12 28 -9 14 9 -2 24 -25 24 -21 -1 -21 -1 -3
-15z"/>
<path d="M1035 650 c-3 -5 -1 -10 4 -10 6 0 11 5 11 10 0 6 -2 10 -4 10 -3 0
-8 -4 -11 -10z"/>
<path d="M970 639 c0 -5 5 -7 10 -4 6 3 10 8 10 11 0 2 -4 4 -10 4 -5 0 -10
-5 -10 -11z"/>
<path d="M1173 602 c-7 -4 -8 -13 -4 -20 6 -9 12 -7 26 8 14 15 15 20 4 20 -8
0 -19 -4 -26 -8z"/>
<path d="M921 583 c-14 -9 -21 -11 -17 -5 8 13 -4 15 -28 6 -9 -3 -16 -11 -16
-18 0 -19 53 -13 73 8 28 31 23 34 -12 9z"/>
<path d="M684 556 c-14 -11 -16 -18 -7 -26 12 -13 73 -5 73 10 0 4 -9 6 -20 3
-16 -4 -19 -2 -14 11 8 20 -6 21 -32 2z"/>
<path d="M811 521 c-13 -24 -6 -61 11 -61 5 0 7 7 4 16 -3 8 -2 12 4 9 12 -8
13 25 1 44 -7 11 -11 9 -20 -8z"/>
<path d="M714 508 c-5 -8 17 -58 26 -58 4 0 14 8 21 17 12 15 12 16 -3 11 -25
-10 -29 3 -7 21 20 16 20 16 -6 16 -15 0 -29 -3 -31 -7z"/>
<path d="M780 470 c0 -5 5 -10 11 -10 5 0 7 5 4 10 -3 6 -8 10 -11 10 -2 0 -4
-4 -4 -10z"/>
<path d="M716 423 c-6 -14 -5 -15 5 -6 7 7 10 15 7 18 -3 3 -9 -2 -12 -12z"/>
<path d="M510 415 c-14 -17 -4 -55 15 -55 19 0 24 11 18 43 -6 30 -15 34 -33
12z"/>
<path d="M810 420 c0 -5 5 -10 10 -10 6 0 10 5 10 10 0 6 -4 10 -10 10 -5 0
-10 -4 -10 -10z"/>
<path d="M635 379 c-4 -6 -5 -12 -2 -15 2 -3 7 2 10 11 7 17 1 20 -8 4z"/>
<path d="M854 305 c-18 -14 -18 -14 4 -8 12 3 22 9 22 14 0 12 -3 11 -26 -6z"/>
<path d="M735 260 c3 -5 8 -10 11 -10 2 0 4 5 4 10 0 6 -5 10 -11 10 -5 0 -7
-4 -4 -10z"/>
<path d="M390 235 c0 -9 5 -15 11 -13 6 2 11 8 11 13 0 5 -5 11 -11 13 -6 2
-11 -4 -11 -13z"/>
<path d="M180 197 c0 -18 27 -53 35 -46 7 8 -15 59 -27 59 -4 0 -8 -6 -8 -13z"/>
<path d="M140 191 c0 -6 5 -13 10 -16 6 -3 10 1 10 9 0 9 -4 16 -10 16 -5 0
-10 -4 -10 -9z"/>
<path d="M610 190 c0 -5 5 -10 11 -10 5 0 7 5 4 10 -3 6 -8 10 -11 10 -2 0 -4
-4 -4 -10z"/>
<path d="M2336 174 c-18 -17 -20 -30 -7 -38 5 -3 14 8 20 24 11 34 9 37 -13
14z"/>
<path d="M225 170 c3 -5 8 -10 11 -10 2 0 4 5 4 10 0 6 -5 10 -11 10 -5 0 -7
-4 -4 -10z"/>
<path d="M2260 121 c0 -5 4 -12 9 -15 4 -3 6 -17 3 -31 -4 -24 -3 -25 22 -15
29 11 87 60 70 60 -5 0 -16 -6 -23 -12 -11 -11 -12 -10 -6 1 6 11 3 13 -15 8
-13 -3 -32 -2 -42 4 -12 6 -18 6 -18 0z"/>
<path d="M2354 76 c-19 -15 -19 -15 4 -38 22 -21 24 -22 20 -3 -2 11 -10 19
-16 18 -7 -2 -12 1 -12 7 0 6 6 10 14 10 8 0 18 5 21 10 9 15 -8 12 -31 -4z"/>
<path d="M1904 55 c-8 -33 -2 -38 21 -21 18 13 18 15 2 30 -15 16 -17 15 -23
-9z"/>
<path d="M2137 73 c-11 -11 -8 -44 6 -56 6 -7 24 -13 40 -15 26 -3 27 -3 15
24 -10 21 -14 24 -16 11 -8 -39 -28 -11 -23 31 2 13 -11 16 -22 5z"/>
<path d="M1674 59 c-3 -6 -2 -15 4 -21 6 -6 11 -2 15 11 5 22 -7 29 -19 10z"/>
<path d="M2241 44 c0 -11 3 -14 6 -6 3 7 2 16 -1 19 -3 4 -6 -2 -5 -13z"/>
<path d="M1851 30 c-15 -9 12 -33 31 -28 11 2 10 7 -3 19 -9 9 -22 13 -28 9z"/>
<path d="M2010 17 c-12 -21 -12 -21 6 -7 10 8 20 15 22 16 2 1 -1 4 -5 7 -5 3
-15 -4 -23 -16z"/>
<path d="M405 10 c-3 -5 -1 -10 4 -10 6 0 11 5 11 10 0 6 -2 10 -4 10 -3 0 -8
-4 -11 -10z"/>
<path d="M1970 10 c0 -5 5 -10 11 -10 5 0 7 5 4 10 -3 6 -8 10 -11 10 -2 0 -4
-4 -4 -10z"/>
<path d="M2220 10 c0 -5 5 -10 10 -10 6 0 10 5 10 10 0 6 -4 10 -10 10 -5 0
-10 -4 -10 -10z"/>
</g>
</svg>
